<svg width="50" height="50" fill="none" xmlns="http://www.w3.org/2000/svg"><path fill-rule="evenodd" clip-rule="evenodd" d="M10.465 25c0-1.624.276-3.18.768-4.64l-8.61-6.435A24.552 24.552 0 000 25c0 3.98.944 7.735 2.62 11.067l8.604-6.447a14.505 14.505 0 01-.759-4.62z" fill="#FBBC05"/><path fill-rule="evenodd" clip-rule="evenodd" d="M25.581 10.227A15 15 0 0135 13.523l7.442-7.273C37.907 2.386 32.092 0 25.582 0 15.471 0 6.783 5.658 2.622 13.925l8.61 6.434c1.983-5.893 7.638-10.132 14.348-10.132z" fill="#EB4335"/><path fill-rule="evenodd" clip-rule="evenodd" d="M25.581 39.773c-6.71 0-12.365-4.239-14.349-10.132l-8.609 6.433C6.783 44.342 15.472 50 25.581 50c6.24 0 12.197-2.168 16.668-6.23l-8.172-6.184c-2.306 1.422-5.21 2.187-8.496 2.187z" fill="#34A853"/><path fill-rule="evenodd" clip-rule="evenodd" d="M50 25c0-1.477-.233-3.068-.582-4.545H25.581v9.659h13.721c-.686 3.293-2.553 5.825-5.226 7.472l8.172 6.183C46.946 39.504 50 33.15 50 25z" fill="#4285F4"/></svg>