<svg width="18" height="18" fill="none" xmlns="http://www.w3.org/2000/svg"><path d="M6.438 3.068C7.578 1.023 8.148 0 9 0c.852 0 1.422 1.023 2.562 3.068l.295.529c.324.58.486.871.739 1.063.252.192.567.263 1.196.405l.572.13c2.214.5 3.321.751 3.584 1.598.264.847-.49 1.73-2 3.494l-.39.456c-.43.502-.644.753-.74 1.063-.097.31-.064.645 0 1.314l.06.609c.228 2.355.342 3.532-.348 4.055-.69.524-1.725.046-3.798-.908l-.536-.247c-.59-.271-.884-.407-1.196-.407-.312 0-.607.136-1.196.407l-.536.247c-2.073.954-3.109 1.431-3.798.908-.69-.523-.576-1.7-.348-4.055l.06-.61c.064-.668.097-1.003 0-1.313-.096-.31-.31-.561-.74-1.063l-.39-.456C.542 8.522-.212 7.64.052 6.793c.263-.847 1.37-1.097 3.584-1.598l.572-.13c.63-.142.944-.213 1.196-.405.253-.192.415-.482.739-1.063l.295-.53z" fill="#DFBB00"/></svg>