<svg width="100" height="16" fill="none" xmlns="http://www.w3.org/2000/svg"><path d="M5.723 2.727C6.736.909 7.243 0 8 0c.758 0 1.264.909 2.277 2.727l.263.47c.288.517.432.775.656.945.225.17.504.234 1.063.36l.51.116c1.967.445 2.951.667 3.185 1.42.234.753-.437 1.537-1.778 3.106l-.347.406c-.381.446-.572.668-.658.944-.085.276-.057.573.001 1.168l.053.541c.202 2.094.304 3.14-.31 3.605-.612.465-1.533.041-3.376-.807l-.476-.22c-.524-.24-.785-.361-1.063-.361-.278 0-.54.12-1.063.361l-.476.22c-1.843.848-2.764 1.272-3.377.807-.613-.465-.511-1.511-.308-3.604l.052-.542c.058-.595.086-.892 0-1.168-.085-.276-.276-.498-.657-.944l-.347-.406C.483 7.575-.188 6.79.046 6.038c.234-.753 1.218-.975 3.186-1.42l.509-.116c.559-.126.838-.19 1.063-.36.224-.17.368-.428.656-.945l.263-.47zm21 0C27.736.909 28.242 0 29 0c.758 0 1.264.909 2.277 2.727l.263.47c.288.517.431.775.656.945.224.17.504.234 1.063.36l.51.116c1.967.445 2.951.667 3.185 1.42.234.753-.437 1.537-1.778 3.106l-.347.406c-.381.446-.572.668-.658.944-.085.276-.057.573.001 1.168l.053.541c.202 2.094.304 3.14-.31 3.605-.612.465-1.533.041-3.376-.807l-.476-.22c-.524-.24-.785-.361-1.063-.361-.277 0-.54.12-1.063.361l-.476.22c-1.843.848-2.764 1.272-3.377.807-.613-.465-.511-1.511-.308-3.604l.052-.542c.058-.595.086-.892 0-1.168-.085-.276-.276-.498-.657-.944l-.347-.406c-1.341-1.569-2.012-2.353-1.778-3.106.234-.753 1.218-.975 3.186-1.42l.509-.116c.559-.126.838-.19 1.063-.36.224-.17.368-.428.656-.945l.262-.47zm20.999 0C48.736.909 49.242 0 50 0s1.264.909 2.277 2.727l.263.47c.288.517.431.775.656.945.224.17.504.234 1.063.36l.51.116c1.967.445 2.951.667 3.185 1.42.234.753-.437 1.537-1.778 3.106l-.347.406c-.381.446-.572.668-.658.944-.085.276-.057.573.001 1.168l.053.541c.202 2.094.304 3.14-.31 3.605-.612.465-1.533.041-3.376-.807l-.476-.22c-.524-.24-.785-.361-1.063-.361-.278 0-.54.12-1.063.361l-.476.22c-1.843.848-2.764 1.272-3.377.807-.613-.465-.511-1.511-.309-3.604l.053-.542c.058-.595.086-.892 0-1.168-.085-.276-.276-.498-.657-.944l-.347-.406c-1.341-1.569-2.012-2.353-1.778-3.106.234-.753 1.218-.975 3.186-1.42l.509-.116c.559-.126.839-.19 1.063-.36.224-.17.368-.428.656-.945l.262-.47zm21 0C69.736.909 70.242 0 71 0c.757 0 1.264.909 2.277 2.727l.263.47c.288.517.431.775.656.945.225.17.504.234 1.063.36l.51.116c1.967.445 2.951.667 3.185 1.42.234.753-.437 1.537-1.778 3.106l-.347.406c-.381.446-.572.668-.658.944-.085.276-.057.573.001 1.168l.053.541c.202 2.094.304 3.14-.31 3.605-.612.465-1.533.041-3.376-.807l-.476-.22c-.524-.24-.785-.361-1.063-.361-.278 0-.54.12-1.063.361l-.476.22c-1.843.848-2.764 1.272-3.377.807-.613-.465-.511-1.511-.309-3.604l.053-.542c.058-.595.086-.892 0-1.168-.085-.276-.276-.498-.657-.944l-.347-.406c-1.341-1.569-2.012-2.353-1.778-3.106.234-.753 1.218-.975 3.186-1.42l.509-.116c.559-.126.838-.19 1.063-.36.224-.17.368-.428.656-.945l.263-.47zm21 0C90.736.909 91.242 0 92 0c.757 0 1.264.909 2.277 2.727l.263.47c.288.517.431.775.656.945.225.17.504.234 1.063.36l.51.116c1.967.445 2.951.667 3.185 1.42.234.753-.437 1.537-1.778 3.106l-.347.406c-.381.446-.572.668-.658.944-.085.276-.057.573.001 1.168l.053.541c.202 2.094.304 3.14-.31 3.605-.612.465-1.533.041-3.376-.807l-.476-.22c-.524-.24-.785-.361-1.063-.361-.278 0-.54.12-1.063.361l-.476.22c-1.843.848-2.764 1.272-3.377.807-.613-.465-.511-1.511-.309-3.604l.053-.542c.058-.595.086-.892 0-1.168-.085-.276-.276-.498-.657-.944l-.347-.406c-1.341-1.569-2.012-2.353-1.778-3.106.234-.753 1.218-.975 3.186-1.42l.509-.116c.559-.126.838-.19 1.063-.36.224-.17.368-.428.656-.945l.263-.47z" fill="#DFBB00"/></svg>