<svg width="145" height="25" fill="none" xmlns="http://www.w3.org/2000/svg"><path d="M8.941 4.26C10.525 1.42 11.316 0 12.5 0c1.184 0 1.975 1.42 3.558 4.26l.41.735c.45.807.675 1.211 1.026 1.477.35.267.787.365 1.661.563l.796.18c3.074.696 4.611 1.044 4.977 2.22.366 1.176-.682 2.401-2.778 4.852l-.542.634c-.596.697-.894 1.045-1.028 1.476-.134.431-.089.896.001 1.825l.082.846c.317 3.27.476 4.905-.482 5.632-.957.727-2.397.064-5.276-1.261l-.744-.343c-.818-.377-1.227-.565-1.661-.565-.434 0-.843.188-1.66.565l-.745.343c-2.88 1.325-4.319 1.988-5.276 1.261-.958-.727-.8-2.362-.482-5.632l.082-.846c.09-.93.135-1.394 0-1.825-.133-.43-.431-.779-1.027-1.475l-.542-.635C.754 11.837-.294 10.611.072 9.435c.366-1.176 1.903-1.524 4.977-2.22l.796-.18c.874-.198 1.31-.296 1.661-.563.35-.266.576-.67 1.026-1.477l.41-.735zm30 0C40.525 1.42 41.316 0 42.5 0c1.184 0 1.975 1.42 3.559 4.26l.41.735c.45.807.674 1.211 1.025 1.477.35.267.787.365 1.661.563l.796.18c3.074.696 4.611 1.044 4.977 2.22.366 1.176-.682 2.401-2.778 4.852l-.542.634c-.596.697-.894 1.045-1.028 1.476-.134.431-.089.896.001 1.825l.082.846c.317 3.27.476 4.905-.482 5.632-.957.727-2.397.064-5.276-1.261l-.744-.343c-.818-.377-1.227-.565-1.661-.565-.434 0-.843.188-1.66.565l-.745.343c-2.88 1.325-4.319 1.988-5.276 1.261-.958-.727-.8-2.362-.482-5.632l.082-.846c.09-.93.135-1.394 0-1.825-.133-.43-.431-.779-1.027-1.475l-.542-.635c-2.096-2.45-3.144-3.676-2.778-4.852.366-1.176 1.903-1.524 4.977-2.22l.796-.18c.874-.198 1.31-.296 1.661-.563.35-.266.576-.67 1.026-1.477l.41-.735zm30 0C70.525 1.42 71.316 0 72.5 0c1.184 0 1.975 1.42 3.558 4.26l.41.735c.45.807.675 1.211 1.026 1.477.35.267.787.365 1.661.563l.796.18c3.074.696 4.612 1.044 4.977 2.22.366 1.176-.682 2.401-2.778 4.852l-.542.634c-.596.697-.894 1.045-1.028 1.476-.134.431-.089.896.001 1.825l.082.846c.317 3.27.476 4.905-.482 5.632-.957.727-2.397.064-5.276-1.261l-.744-.343c-.818-.377-1.227-.565-1.661-.565-.434 0-.843.188-1.66.565l-.745.343c-2.88 1.325-4.319 1.988-5.276 1.261-.958-.727-.8-2.362-.482-5.632l.082-.846c.09-.93.135-1.394 0-1.825-.133-.43-.431-.779-1.027-1.475l-.542-.635c-2.096-2.45-3.144-3.676-2.778-4.852.365-1.176 1.903-1.524 4.977-2.22l.796-.18c.874-.198 1.31-.296 1.661-.563.35-.266.576-.67 1.026-1.477l.41-.735zm30 0C100.525 1.42 101.316 0 102.5 0c1.184 0 1.975 1.42 3.558 4.26l.41.735c.45.807.675 1.211 1.026 1.477.351.267.787.365 1.661.563l.796.18c3.074.696 4.611 1.044 4.977 2.22.366 1.176-.682 2.401-2.778 4.852l-.542.634c-.596.697-.894 1.045-1.028 1.476-.134.431-.089.896.001 1.825l.082.846c.317 3.27.476 4.905-.482 5.632-.958.727-2.397.064-5.276-1.261l-.744-.343c-.818-.377-1.227-.565-1.661-.565-.434 0-.843.188-1.661.565l-.744.343c-2.88 1.325-4.319 1.988-5.276 1.261-.958-.727-.8-2.362-.482-5.632l.082-.846c.09-.93.135-1.394 0-1.825-.133-.43-.431-.779-1.027-1.475l-.542-.635c-2.096-2.45-3.144-3.676-2.778-4.852.365-1.176 1.903-1.524 4.977-2.22l.796-.18c.874-.198 1.31-.296 1.661-.563.35-.266.576-.67 1.026-1.477l.41-.735z" fill="#DFBB00"/><path d="M128.941 4.26C130.525 1.42 131.316 0 132.5 0c1.184 0 1.975 1.42 3.558 4.26l.41.735c.45.807.675 1.211 1.026 1.477.351.267.787.365 1.661.563l.796.18c3.074.696 4.611 1.044 4.977 2.22.366 1.176-.682 2.401-2.778 4.852l-.542.634c-.596.697-.894 1.045-1.028 1.476-.134.431-.089.896.001 1.825l.082.846c.317 3.27.476 4.905-.482 5.632-.958.727-2.397.064-5.276-1.261l-.744-.343c-.818-.377-1.227-.565-1.661-.565-.434 0-.843.188-1.661.565l-.744.343c-2.879 1.325-4.319 1.988-5.276 1.261-.958-.727-.799-2.362-.482-5.632l.082-.846c.09-.93.135-1.394.001-1.825-.134-.43-.432-.779-1.028-1.475l-.542-.635c-2.096-2.45-3.144-3.676-2.778-4.852.366-1.176 1.903-1.524 4.977-2.22l.796-.18c.874-.198 1.31-.296 1.661-.563.351-.266.576-.67 1.026-1.477l.409-.735z" fill="url(#paint0_linear_20_198)"/><defs><linearGradient id="paint0_linear_20_198" x1="120" y1="12" x2="145" y2="12" gradientUnits="userSpaceOnUse"><stop stop-color="#DFBB00"/><stop offset="1" stop-color="#DFBB00" stop-opacity="0"/></linearGradient></defs></svg>