<svg width="25" height="25" fill="none" xmlns="http://www.w3.org/2000/svg"><path d="M8.941 4.26C10.525 1.42 11.316 0 12.5 0c1.184 0 1.975 1.42 3.558 4.26l.41.735c.45.807.675 1.211 1.026 1.477.35.267.787.365 1.661.563l.796.18c3.074.696 4.611 1.044 4.977 2.22.366 1.176-.682 2.401-2.778 4.852l-.542.634c-.596.697-.894 1.045-1.028 1.476-.134.431-.089.896.001 1.825l.082.846c.317 3.27.476 4.905-.482 5.632-.957.727-2.397.064-5.276-1.261l-.744-.343c-.818-.377-1.227-.565-1.661-.565-.434 0-.843.188-1.66.565l-.745.343c-2.88 1.325-4.319 1.988-5.276 1.261-.958-.727-.8-2.362-.482-5.632l.082-.846c.09-.93.135-1.394 0-1.825-.133-.43-.431-.779-1.027-1.475l-.542-.635C.754 11.837-.294 10.611.072 9.435c.366-1.176 1.903-1.524 4.977-2.22l.796-.18c.874-.198 1.31-.296 1.661-.563.35-.266.576-.67 1.026-1.477l.41-.735z" fill="#DFBB00"/></svg>