<svg width="25" height="25" fill="none" xmlns="http://www.w3.org/2000/svg"><path d="M15.622 4.504h0l.41.735h0l.051.093c.4.717.673 1.208 1.109 1.539.438.332.976.454 1.753.63l.1.022.11-.488-.11.488.795.18c1.555.351 2.662.603 3.432.907.76.3 1.063.6 1.179.973.117.378.039.818-.412 1.534-.454.72-1.21 1.607-2.27 2.845h0l-.541.635-.066.076c-.532.622-.894 1.045-1.06 1.576h0c-.164.528-.11 1.089-.028 1.92l.01.101h0l.082.846c.16 1.651.273 2.835.235 3.7-.039.863-.225 1.26-.522 1.486-.29.22-.69.282-1.478.056-.793-.227-1.831-.703-3.287-1.373 0 0 0 0 0 0l-.744-.343h0l-.097-.045c-.724-.334-1.228-.566-1.773-.566-.545 0-1.05.233-1.773.566l-.097.045h0l-.744.343c-1.456.67-2.494 1.146-3.287 1.373-.788.226-1.189.163-1.478-.056-.297-.226-.483-.623-.522-1.486-.038-.865.075-2.049.235-3.7l.082-.846.01-.1c.081-.832.136-1.393-.029-1.921-.165-.531-.527-.954-1.06-1.577l-.065-.075-.542-.635h0c-1.059-1.238-1.815-2.124-2.27-2.845C.51 10.4.433 9.96.55 9.582l-.478-.148.477.148c.116-.373.419-.673 1.18-.973.77-.304 1.876-.556 3.43-.907l.796-.18-.11-.488.11.488.1-.023c.777-.175 1.315-.297 1.753-.63.436-.33.71-.821 1.11-1.54l.05-.091.41-.735c.8-1.435 1.373-2.46 1.89-3.135C11.784.695 12.148.5 12.5.5s.716.195 1.232.87c.517.673 1.09 1.7 1.89 3.134z" stroke="#DFBB00"/></svg>